<svg width="40" height="40" viewBox="0 0 40 40" fill="none" xmlns="http://www.w3.org/2000/svg">
<g clip-path="url(#clip0_52_230)">
<path d="M24.1362 9.45401C21.3191 8.34915 18.2406 8.40754 15.4676 9.61811C9.74307 12.1173 7.11897 18.8078 9.61814 24.5323C9.79798 24.9443 9.60979 25.4241 9.1978 25.6039C8.78592 25.7838 8.30599 25.5956 8.12615 25.1836C5.26785 18.6364 8.26909 10.9843 14.8163 8.12601C17.9882 6.74135 21.509 6.67471 24.7306 7.93835C27.9524 9.202 30.4892 11.6445 31.8739 14.8162C34.7322 21.3635 31.7311 29.0154 25.1837 31.8737C23.5229 32.5988 21.7648 32.9623 20.0036 32.9623C18.4266 32.9623 16.8472 32.6707 15.3335 32.0862C14.9141 31.9243 14.7054 31.4531 14.8673 31.0337C15.0293 30.6142 15.5007 30.4057 15.9199 30.5675C18.7213 31.6494 21.7799 31.5834 24.5323 30.3817C30.257 27.8826 32.881 21.1921 30.3818 15.4676C29.1712 12.6945 26.9531 10.5589 24.1362 9.45401Z" fill="#AAAAAA"/>
<path d="M7.00902 5.8579L9.54369 8.39245C9.86158 8.71034 9.86158 9.22576 9.54369 9.54355C9.38479 9.70244 9.17641 9.78199 8.96814 9.78199C8.75986 9.78199 8.55148 9.70255 8.39259 9.54355L5.85793 7.00899C5.54003 6.6911 5.54003 6.17568 5.85793 5.8579C6.17582 5.54001 6.69124 5.54001 7.00902 5.8579Z" fill="#AAAAAA"/>
<path d="M31.6075 30.4563L34.1422 32.991C34.4601 33.3089 34.4601 33.8243 34.1422 34.1421C33.9833 34.301 33.7749 34.3805 33.5667 34.3805C33.3584 34.3805 33.15 34.3011 32.9911 34.1421L30.4564 31.6074C30.1386 31.2895 30.1386 30.7741 30.4564 30.4563C30.7742 30.1384 31.2896 30.1384 31.6075 30.4563Z" fill="#AAAAAA"/>
<path d="M0.813983 19.186H4.39847C4.84801 19.186 5.21246 19.5504 5.21246 20C5.21246 20.4495 4.84801 20.814 4.39847 20.814H0.813983C0.364443 20.814 -7.62939e-06 20.4495 -7.62939e-06 20C-7.62939e-06 19.5504 0.364443 19.186 0.813983 19.186Z" fill="#AAAAAA"/>
<path d="M35.6015 19.186H39.186C39.6355 19.186 40 19.5504 40 20C40 20.4495 39.6355 20.814 39.186 20.814H35.6015C35.152 20.814 34.7875 20.4495 34.7875 20C34.7875 19.5504 35.152 19.186 35.6015 19.186Z" fill="#AAAAAA"/>
<path d="M8.39247 30.4563C8.71036 30.1384 9.22578 30.1384 9.54356 30.4563C9.86146 30.7742 9.86146 31.2896 9.54356 31.6074L7.00889 34.1421C6.85 34.301 6.64162 34.3805 6.43334 34.3805C6.22507 34.3805 6.01669 34.3011 5.8578 34.1421C5.5399 33.8242 5.5399 33.3088 5.8578 32.991L8.39247 30.4563Z" fill="#AAAAAA"/>
<path d="M31.6075 9.54366C31.4486 9.70255 31.2403 9.7821 31.032 9.7821C30.8237 9.7821 30.6153 9.70266 30.4564 9.54366C30.1385 9.22576 30.1385 8.71035 30.4564 8.39256L32.991 5.8579C33.3089 5.54001 33.8243 5.54001 34.1421 5.8579C34.46 6.17579 34.46 6.69121 34.1421 7.00899L31.6075 9.54366Z" fill="#AAAAAA"/>
<path d="M20 34.7876C20.4495 34.7876 20.814 35.152 20.814 35.6015V39.186C20.814 39.6356 20.4495 40 20 40C19.5504 40 19.186 39.6356 19.186 39.186V35.6015C19.186 35.152 19.5504 34.7876 20 34.7876Z" fill="#AAAAAA"/>
<path d="M20 5.21248C19.5504 5.21248 19.186 4.84803 19.186 4.39849V0.813992C19.186 0.364451 19.5504 0 20 0C20.4495 0 20.814 0.364451 20.814 0.813992V4.39849C20.814 4.84803 20.4495 5.21248 20 5.21248Z" fill="#AAAAAA"/>
</g>
<defs>
<clipPath id="clip0_52_230">
<rect width="40" height="40" fill="white" transform="matrix(-1 0 0 1 40 0)"/>
</clipPath>
</defs>
</svg>
