<svg width="24" height="24" viewBox="0 0 24 24" fill="none" xmlns="http://www.w3.org/2000/svg">
<path d="M19.3977 16.5765C19.1346 16.4177 18.7926 16.5025 18.6338 16.7656C17.8895 17.9997 16.8368 19.0327 15.5894 19.7528C14.3043 20.4948 12.8358 20.887 11.3427 20.887C6.651 20.887 2.83411 17.07 2.83411 12.3784C2.83411 10.1216 3.70866 7.99596 5.29654 6.39287C6.65441 5.02201 8.39922 4.16868 10.2867 3.9363C9.69929 5.20031 9.39226 6.58363 9.39226 7.99039C9.39226 9.83878 9.91787 11.6343 10.9123 13.1828C11.8802 14.6901 13.2437 15.8957 14.8554 16.6692C15.1324 16.8021 15.4649 16.6854 15.5978 16.4083C15.7308 16.1312 15.614 15.7988 15.3369 15.6658C13.9114 14.9816 12.7052 13.9151 11.8488 12.5815C10.9698 11.2127 10.5052 9.62516 10.5052 7.99039C10.5052 6.44087 10.9262 4.92378 11.7227 3.60315C11.8269 3.43035 11.8294 3.21474 11.7293 3.03956C11.6292 2.86438 11.4425 2.75435 11.2404 2.75932C8.69177 2.78603 6.30012 3.79829 4.50583 5.60965C2.71013 7.42257 1.72116 9.82639 1.72116 12.3784C1.72116 17.6837 6.03732 22 11.3427 22C13.0309 22 14.6917 21.5563 16.1458 20.7167C17.5557 19.9027 18.7456 18.7352 19.5868 17.3404C19.7456 17.0772 19.6609 16.7352 19.3977 16.5765Z" fill="#AAAAAA"/>
<path d="M21.7224 3.52898H20.7499V2.55641C20.7499 2.24909 20.5007 1.99994 20.1934 1.99994C19.8861 1.99994 19.6369 2.24909 19.6369 2.55641V3.52891H18.6644C18.3571 3.52891 18.108 3.77806 18.108 4.08538C18.108 4.3927 18.3571 4.64185 18.6644 4.64185H19.6369V5.61435C19.6369 5.92167 19.8861 6.17082 20.1934 6.17082C20.5007 6.17082 20.7499 5.92167 20.7499 5.61435V4.64193H21.7224C22.0297 4.64193 22.2789 4.39278 22.2789 4.08545C22.2789 3.77813 22.0297 3.52898 21.7224 3.52898Z" fill="#AAAAAA"/>
<path d="M15.3707 11.144H16.3431V12.1165C16.3431 12.4239 16.5923 12.673 16.8996 12.673C17.2069 12.673 17.4561 12.4239 17.4561 12.1165V11.144H18.4286C18.7359 11.144 18.9851 10.8949 18.9851 10.5876C18.9851 10.2803 18.7359 10.0311 18.4286 10.0311H17.4561V9.05861C17.4561 8.75129 17.2069 8.50214 16.8996 8.50214C16.5923 8.50214 16.3431 8.75129 16.3431 9.05861V10.0311H15.3707C15.0633 10.0311 14.8142 10.2803 14.8142 10.5876C14.8142 10.8949 15.0633 11.144 15.3707 11.144Z" fill="#AAAAAA"/>
</svg>
