<svg width="24" height="24" viewBox="0 0 24 24" fill="none" xmlns="http://www.w3.org/2000/svg">
<path d="M19.9272 21.7597C19.9264 21.7597 19.9257 21.7597 19.9249 21.7597L6.91684 21.6962C4.44162 21.6962 2.42609 19.6806 2.42609 17.2031C2.42609 14.7256 4.44168 12.71 6.91917 12.71C7.52685 12.71 8.12108 12.8316 8.67227 13.0657C8.88191 10.0983 11.3632 7.74805 14.383 7.74805C17.5399 7.74805 20.1082 10.3163 20.1082 13.4732C20.1082 13.5208 20.1074 13.569 20.1059 13.6182C22.2691 13.7121 23.9999 15.5012 23.9999 17.6871C24 19.9327 22.1729 21.7597 19.9272 21.7597ZM6.91917 13.6526C4.96145 13.6526 3.36872 15.2454 3.36872 17.2031C3.36872 19.1608 4.96145 20.7536 6.91917 20.7536L19.928 20.8171C21.6536 20.8167 23.0574 19.4127 23.0574 17.687C23.0574 15.9611 21.6532 14.5569 19.9272 14.5569C19.8406 14.5569 19.749 14.5616 19.6387 14.5716C19.4972 14.5844 19.3572 14.5329 19.2579 14.4309C19.1587 14.329 19.1108 14.1877 19.1277 14.0465C19.1532 13.833 19.1656 13.6455 19.1656 13.4731C19.1656 10.836 17.0201 8.69061 14.3831 8.69061C11.7461 8.69061 9.60057 10.836 9.60057 13.4731C9.60057 13.5743 9.60824 13.6788 9.61628 13.7896L9.61867 13.8224C9.63168 14.002 9.54131 14.1732 9.38572 14.2638C9.23012 14.3544 9.03663 14.3483 8.88688 14.2485C8.30295 13.8587 7.62243 13.6526 6.91917 13.6526Z" fill="#AAAAAA"/>
<path d="M1.78302 15.1515C1.63169 15.1515 1.48313 15.0788 1.39201 14.9439C0.48137 13.5959 0 12.0203 0 10.3873C0 8.22583 0.837622 6.18987 2.35859 4.65439C3.87823 3.12022 5.90395 2.26287 8.06251 2.24025C8.23337 2.23899 8.3918 2.32929 8.47664 2.47766C8.56147 2.62597 8.55927 2.80865 8.47104 2.95495C7.79643 4.07354 7.43987 5.35841 7.43987 6.6708C7.43987 8.00267 7.80592 9.30363 8.49844 10.4328C8.63456 10.6547 8.56499 10.9448 8.34303 11.0809C8.12108 11.217 7.83093 11.1474 7.69488 10.9255C6.91137 9.648 6.49724 8.17668 6.49724 6.67074C6.49724 5.47925 6.75728 4.30763 7.25486 3.23705C5.6561 3.43399 4.17837 4.15668 3.02823 5.31781C1.68335 6.67558 0.942631 8.476 0.942631 10.3873C0.942631 11.8315 1.36813 13.2247 2.17314 14.4163C2.31887 14.6319 2.26212 14.9249 2.04645 15.0706C1.96551 15.1253 1.87376 15.1515 1.78302 15.1515Z" fill="#AAAAAA"/>
</svg>
