<svg width="24" height="24" viewBox="0 0 24 24" fill="none" xmlns="http://www.w3.org/2000/svg">
<g clip-path="url(#clip0_50_2964)">
<path d="M19.4693 19.7937L4.99584 19.723C3.92273 19.723 2.8978 19.3865 2.03436 18.7497C1.80135 18.5779 1.75171 18.2496 1.92362 18.0166C2.09546 17.7835 2.42375 17.7339 2.65675 17.9058C3.33858 18.4086 4.14833 18.6744 4.99842 18.6744L19.4718 18.7451C21.3893 18.7451 22.9514 17.183 22.9514 15.263C22.9514 13.3429 21.3893 11.7809 19.4692 11.7809C19.1796 11.7809 18.9449 11.5461 18.9449 11.2566C18.9449 10.967 19.1796 10.7322 19.4692 10.7322C21.9675 10.7322 24 12.7647 24 15.263C24 17.7612 21.9675 19.7937 19.4693 19.7937Z" fill="#AAAAAA"/>
<path d="M0.524317 15.249C0.234754 15.249 0 15.0142 0 14.7247C0 11.9686 2.24226 9.72624 4.99842 9.72624C5.67443 9.72624 6.33549 9.86144 6.94866 10.122C7.18188 6.82089 9.94216 4.2063 13.3016 4.2063C14.7685 4.2063 16.2003 4.71712 17.3334 5.64467C18.4506 6.55915 19.2308 7.83611 19.5304 9.24044C19.5908 9.52364 19.4103 9.80223 19.127 9.86263C18.8438 9.92296 18.5654 9.74245 18.5049 9.45925C17.9851 7.02314 15.7969 5.255 13.3016 5.255C10.368 5.255 7.98129 7.64169 7.98129 10.5753C7.98129 10.6878 7.98982 10.8042 7.99876 10.9273L8.00142 10.9638C8.01589 11.1636 7.91536 11.3541 7.74227 11.4548C7.56911 11.5555 7.35386 11.5489 7.18733 11.4377C6.53767 11.004 5.7807 10.7749 4.99828 10.7749C2.82047 10.7749 1.04863 12.5468 1.04863 14.7247C1.04863 15.0142 0.813879 15.249 0.524317 15.249Z" fill="#AAAAAA"/>
</g>
<defs>
<clipPath id="clip0_50_2964">
<rect width="24" height="24" fill="white"/>
</clipPath>
</defs>
</svg>
