<svg width="24" height="24" viewBox="0 0 24 24" fill="none" xmlns="http://www.w3.org/2000/svg">
<g clip-path="url(#clip0_52_42)">
<path d="M20.4852 19.3574C20.4845 19.3574 20.4838 19.3574 20.483 19.3574L9.39194 19.3032C7.25838 19.3032 5.52087 17.5657 5.52087 15.43C5.52087 13.2942 7.25838 11.5567 9.39413 11.5567C9.89813 11.5567 10.3914 11.6537 10.8512 11.8408C11.0597 9.31651 13.1809 7.32602 15.7581 7.32602C18.4731 7.32602 20.6819 9.53478 20.6819 12.2497C20.6819 12.2773 20.6816 12.305 20.681 12.3331C22.5284 12.435 24.0001 13.9701 24.0001 15.8425C24 17.7807 22.4233 19.3574 20.4852 19.3574ZM9.39413 12.445C7.74823 12.445 6.40914 13.7841 6.40914 15.43C6.40914 17.076 7.74817 18.415 9.39413 18.415L20.486 18.4692C21.9339 18.4688 23.1117 17.2907 23.1117 15.8427C23.1117 14.3944 21.9335 13.2161 20.4852 13.2161C20.4127 13.2161 20.3357 13.2201 20.2431 13.2285C20.1093 13.2408 19.9776 13.192 19.8842 13.0959C19.7907 12.9998 19.7457 12.8666 19.7616 12.7335C19.7831 12.5537 19.7936 12.3955 19.7936 12.2498C19.7936 10.0246 17.9833 8.21434 15.7581 8.21434C13.533 8.21434 11.7227 10.0246 11.7227 12.2498C11.7227 12.3342 11.7291 12.4224 11.736 12.5157L11.7381 12.5446C11.7503 12.7138 11.6651 12.8752 11.5186 12.9605C11.3719 13.0459 11.1896 13.0402 11.0485 12.946C10.5575 12.6182 9.98542 12.445 9.39413 12.445Z" fill="#AAAAAA"/>
<path d="M4.39294 14.2705H3.51593C1.57726 14.2705 0 12.6933 0 10.7546V10.7087C0 8.91124 1.37089 7.4122 3.12095 7.29596C3.74392 7.25462 4.36008 7.38745 4.90464 7.67489C5.68531 5.79331 7.55298 4.57111 9.63584 4.64579C11.0249 4.69547 12.3457 5.37932 13.2596 6.52204C13.4128 6.71361 13.3818 6.99312 13.1902 7.14632C12.9986 7.29951 12.7191 7.26842 12.5659 7.07691C11.8138 6.13648 10.7342 5.57397 9.60404 5.53352C7.7327 5.46637 6.07254 6.67607 5.56581 8.47469C5.5256 8.6174 5.41682 8.73063 5.27588 8.77658C5.135 8.82247 4.98038 8.79512 4.86378 8.70339C4.38519 8.32706 3.78709 8.142 3.17981 8.18233C1.89485 8.2676 0.888265 9.3774 0.888265 10.7087V10.7546C0.888265 12.2035 2.06705 13.3822 3.51593 13.3822H4.39294C4.63822 13.3822 4.83708 13.5811 4.83708 13.8264C4.83708 14.0717 4.63822 14.2705 4.39294 14.2705Z" fill="#AAAAAA"/>
</g>
<defs>
<clipPath id="clip0_52_42">
<rect width="24" height="24" fill="white"/>
</clipPath>
</defs>
</svg>
