<svg width="24" height="24" viewBox="0 0 24 24" fill="none" xmlns="http://www.w3.org/2000/svg">
<path d="M15.9906 17.3591C16.2802 17.3591 16.5149 17.1244 16.5149 16.8348C16.5149 16.5453 16.2802 16.3105 15.9906 16.3105H13.079L13.7651 15.362C13.9348 15.1274 13.8822 14.7996 13.6476 14.6299C13.413 14.4602 13.0852 14.5127 12.9155 14.7474L11.7849 16.3105H7.98022C7.69066 16.3105 7.4559 16.5453 7.4559 16.8348C7.4559 17.1244 7.69066 17.3591 7.98022 17.3591H11.0264L9.41797 19.5828C9.24823 19.8174 9.30087 20.1452 9.53548 20.3149C9.62839 20.3821 9.73584 20.4144 9.84231 20.4144C10.0048 20.4144 10.1651 20.3391 10.2676 20.1974L12.3205 17.3591H15.9906Z" fill="#AAAAAA"/>
<path d="M19.4693 8.29761C19.1797 8.29761 18.9449 8.53236 18.9449 8.82192C18.9449 9.11149 19.1797 9.34624 19.4693 9.34624C21.3893 9.34624 22.9514 10.9083 22.9514 12.8283C22.9514 14.5768 21.6457 16.0617 19.9144 16.2823C19.6272 16.3189 19.424 16.5815 19.4606 16.8687C19.4943 17.1335 19.72 17.3268 19.9801 17.3268C20.0021 17.3268 20.0245 17.3254 20.047 17.3226C22.3006 17.0355 24 15.1034 24 12.8283C24 10.3301 21.9675 8.29761 19.4693 8.29761Z" fill="#AAAAAA"/>
<path d="M4.18572 17.2148C4.43383 17.2148 4.65439 17.0378 4.70081 16.785C4.75311 16.5002 4.56463 16.227 4.27982 16.1747C2.40752 15.8308 1.04863 14.1971 1.04863 12.29C1.04863 10.1122 2.82047 8.34024 4.99842 8.34024C5.78084 8.34024 6.53781 8.56948 7.18747 9.00312C7.354 9.11428 7.56924 9.12092 7.74241 9.02018C7.91543 8.91944 8.01603 8.72887 8.00156 8.52921L7.9989 8.49264C7.98989 8.36954 7.98143 8.25321 7.98143 8.14065C7.98143 5.20706 10.3681 2.8203 13.3018 2.8203C14.5692 2.8203 15.7969 3.27338 16.7585 4.09614C17.7099 4.91016 18.3461 6.03451 18.55 7.26211C18.5974 7.54776 18.8675 7.7407 19.1531 7.69345C19.4387 7.64598 19.6319 7.37599 19.5844 7.09034C19.3402 5.61981 18.5787 4.2735 17.4402 3.29932C16.2888 2.31423 14.819 1.77167 13.3018 1.77167C9.9423 1.77167 7.18195 4.38619 6.94873 7.68736C6.33556 7.42681 5.6745 7.29161 4.99849 7.29161C2.24226 7.29168 0 9.53394 0 12.29C0 14.7034 1.72025 16.7708 4.09044 17.206C4.12246 17.212 4.15427 17.2148 4.18572 17.2148Z" fill="#AAAAAA"/>
<path d="M7.64503 14.6299C7.41041 14.4602 7.08261 14.5127 6.91294 14.7474L3.4154 19.5828C3.24566 19.8174 3.2983 20.1452 3.53291 20.3149C3.62582 20.3821 3.73327 20.4144 3.83974 20.4144C4.00228 20.4144 4.16251 20.3391 4.265 20.1974L7.76254 15.362C7.93228 15.1274 7.87964 14.7996 7.64503 14.6299Z" fill="#AAAAAA"/>
<path d="M2.67697 21.1797C2.53925 21.1797 2.40362 21.2356 2.30645 21.3335C2.20858 21.4307 2.15265 21.5656 2.15265 21.704C2.15265 21.8417 2.20858 21.9766 2.30645 22.0745C2.40362 22.1724 2.53925 22.2283 2.67697 22.2283C2.81539 22.2283 2.95031 22.1724 3.04818 22.0745C3.14536 21.9766 3.20128 21.8417 3.20128 21.704C3.20128 21.5656 3.14536 21.4307 3.04818 21.3335C2.95031 21.2356 2.81532 21.1797 2.67697 21.1797Z" fill="#AAAAAA"/>
<path d="M8.68005 21.1797C8.54163 21.1797 8.4067 21.2356 8.30883 21.3335C8.21166 21.4307 8.15573 21.5656 8.15573 21.704C8.15573 21.8417 8.21166 21.9773 8.30883 22.0745C8.4067 22.1724 8.54163 22.2283 8.68005 22.2283C8.81777 22.2283 8.95269 22.1724 9.05056 22.0745C9.14774 21.9773 9.20436 21.8417 9.20436 21.704C9.20436 21.5656 9.14774 21.4307 9.05056 21.3335C8.95269 21.2356 8.81777 21.1797 8.68005 21.1797Z" fill="#AAAAAA"/>
<path d="M19.6502 14.6299C19.4156 14.4602 19.0878 14.5127 18.9181 14.7474L15.4206 19.5828C15.2508 19.8174 15.3035 20.1452 15.5381 20.3149C15.631 20.3821 15.7385 20.4144 15.8449 20.4144C16.0075 20.4144 16.1677 20.3391 16.2702 20.1974L19.7677 15.362C19.9374 15.1274 19.8849 14.7996 19.6502 14.6299Z" fill="#AAAAAA"/>
<path d="M14.6823 21.1797C14.5446 21.1797 14.409 21.2356 14.3118 21.3328C14.2139 21.4307 14.158 21.5656 14.158 21.704C14.158 21.8417 14.2139 21.9773 14.3118 22.0745C14.409 22.1724 14.5446 22.2283 14.6823 22.2283C14.82 22.2283 14.9557 22.1724 15.0528 22.0745C15.1507 21.9766 15.2066 21.8417 15.2066 21.704C15.2066 21.5656 15.1507 21.4307 15.0528 21.3328C14.9557 21.2356 14.8201 21.1797 14.6823 21.1797Z" fill="#AAAAAA"/>
</svg>
