<svg width="24" height="24" viewBox="0 0 24 24" fill="none" xmlns="http://www.w3.org/2000/svg">
<path d="M16.4607 8.17733C16.4612 8.14972 16.4615 8.12244 16.4615 8.09536C16.4615 5.14579 14.0619 2.74609 11.1122 2.74609C8.31642 2.74609 6.01465 4.9023 5.78228 7.63905C5.28567 7.43866 4.75347 7.33477 4.20983 7.33477C1.88857 7.33477 0 9.22328 0 11.5447C0 13.866 1.88857 15.7546 4.20747 15.7546L16.2369 15.8133C16.2377 15.8133 16.2385 15.8133 16.2393 15.8133C18.3463 15.8133 20.0605 14.0992 20.0605 11.9921C20.0604 9.95946 18.465 8.2924 16.4607 8.17733ZM16.2401 14.8319L4.20983 14.7732C2.42966 14.7732 0.981312 13.3249 0.981312 11.5447C0.981312 9.76444 2.42966 8.31608 4.20989 8.31608C4.84938 8.31608 5.46813 8.50345 5.99922 8.85797C6.15505 8.96198 6.35654 8.96827 6.51853 8.87393C6.68044 8.77966 6.77458 8.60139 6.76104 8.41454L6.75869 8.38268C6.75136 8.2818 6.74436 8.18655 6.74436 8.09542C6.74436 5.68695 8.70377 3.72747 11.1123 3.72747C13.5208 3.72747 15.4803 5.68689 15.4803 8.09542C15.4803 8.25289 15.4689 8.42409 15.4456 8.61898C15.428 8.76605 15.4778 8.91318 15.5811 9.01936C15.6844 9.12554 15.83 9.17938 15.9776 9.16584C16.0777 9.15668 16.1609 9.15236 16.2394 9.15236C17.8053 9.15236 19.0792 10.4263 19.0792 11.9921C19.0791 13.5577 17.8056 14.8315 16.2401 14.8319Z" fill="#AAAAAA"/>
<path d="M19.0636 2.2417C17.9507 2.2417 16.8592 2.62284 15.9903 3.3148C15.7784 3.48365 15.7434 3.7923 15.9122 4.00427C16.081 4.21623 16.3897 4.25123 16.6017 4.08238C17.3076 3.52015 18.159 3.22295 19.0636 3.22295C21.2445 3.22295 23.0187 4.99722 23.0187 7.17809C23.0187 8.57953 22.2659 9.88952 21.0539 10.5968C20.8198 10.7334 20.7409 11.0338 20.8775 11.2679C20.9687 11.4242 21.1329 11.5113 21.3016 11.5113C21.3856 11.5113 21.4708 11.4897 21.5485 11.4444C23.0606 10.5619 24 8.92718 24 7.17815C24 4.45619 21.7856 2.2417 19.0636 2.2417Z" fill="#AAAAAA"/>
<path d="M4.70297 16.5253C4.43199 16.5253 4.21231 16.745 4.21231 17.0159V18.242C4.21231 18.513 4.43199 18.7326 4.70297 18.7326C4.97394 18.7326 5.19362 18.513 5.19362 18.242V17.0159C5.19362 16.745 4.97394 16.5253 4.70297 16.5253Z" fill="#AAAAAA"/>
<path d="M8.25448 16.5253C7.98351 16.5253 7.76382 16.745 7.76382 17.0159V18.242C7.76382 18.513 7.98351 18.7326 8.25448 18.7326C8.52545 18.7326 8.74514 18.513 8.74514 18.242V17.0159C8.74514 16.745 8.52545 16.5253 8.25448 16.5253Z" fill="#AAAAAA"/>
<path d="M11.806 16.5253C11.535 16.5253 11.3153 16.745 11.3153 17.0159V18.242C11.3153 18.513 11.535 18.7326 11.806 18.7326C12.0769 18.7326 12.2966 18.513 12.2966 18.242V17.0159C12.2966 16.745 12.0769 16.5253 11.806 16.5253Z" fill="#AAAAAA"/>
<path d="M15.3574 16.5253C15.0865 16.5253 14.8668 16.745 14.8668 17.0159V18.242C14.8668 18.513 15.0865 18.7326 15.3574 18.7326C15.6284 18.7326 15.8481 18.513 15.8481 18.242V17.0159C15.8481 16.745 15.6284 16.5253 15.3574 16.5253Z" fill="#AAAAAA"/>
<path d="M4.70297 19.551C4.43199 19.551 4.21231 19.7707 4.21231 20.0417V21.2677C4.21231 21.5387 4.43199 21.7584 4.70297 21.7584C4.97394 21.7584 5.19362 21.5387 5.19362 21.2677V20.0417C5.19362 19.7707 4.97394 19.551 4.70297 19.551Z" fill="#AAAAAA"/>
<path d="M8.25448 19.551C7.98351 19.551 7.76382 19.7707 7.76382 20.0417V21.2677C7.76382 21.5387 7.98351 21.7584 8.25448 21.7584C8.52545 21.7584 8.74514 21.5387 8.74514 21.2677V20.0417C8.74514 19.7707 8.52545 19.551 8.25448 19.551Z" fill="#AAAAAA"/>
<path d="M11.806 19.551C11.535 19.551 11.3153 19.7707 11.3153 20.0417V21.2677C11.3153 21.5387 11.535 21.7584 11.806 21.7584C12.0769 21.7584 12.2966 21.5387 12.2966 21.2677V20.0417C12.2966 19.7707 12.0769 19.551 11.806 19.551Z" fill="#AAAAAA"/>
<path d="M15.3574 19.551C15.0865 19.551 14.8668 19.7707 14.8668 20.0417V21.2677C14.8668 21.5387 15.0865 21.7584 15.3574 21.7584C15.6284 21.7584 15.8481 21.5387 15.8481 21.2677V20.0417C15.8481 19.7707 15.6284 19.551 15.3574 19.551Z" fill="#AAAAAA"/>
</svg>
