<svg width="24" height="24" viewBox="0 0 24 24" fill="none" xmlns="http://www.w3.org/2000/svg">
<g clip-path="url(#clip0_52_180)">
<path d="M19.021 6.13428C18.7487 6.13428 18.5281 6.35494 18.5281 6.62713C18.5281 6.89931 18.7487 7.11998 19.021 7.11998C20.8258 7.11998 22.2942 8.58827 22.2942 10.3931C22.2942 12.1979 20.8258 13.6662 19.021 13.6662H13.2732C13.0009 13.6662 12.7803 13.8869 12.7803 14.159C12.7803 14.4312 13.0009 14.6519 13.2732 14.6519H14.1277L13.0004 16.2425C12.8939 16.3928 12.8801 16.5901 12.9647 16.7538C13.0493 16.9175 13.2182 17.0203 13.4025 17.0203H14.7308L10.1682 21.204L11.8371 18.0646C11.9184 17.9118 11.9135 17.7277 11.8244 17.5794C11.7353 17.4311 11.5749 17.3404 11.4019 17.3404H9.28668L12.274 13.2734C12.4351 13.054 12.3879 12.7455 12.1685 12.5844C11.9493 12.4232 11.6407 12.4705 11.4796 12.6898L7.91603 17.5414C7.80602 17.6912 7.7896 17.8901 7.87351 18.0558C7.95743 18.2216 8.12743 18.3261 8.3132 18.3261H10.5818L7.95059 23.2758C7.83796 23.4877 7.89434 23.75 8.08412 23.8969C8.17323 23.9659 8.27962 24 8.38568 24C8.50554 24 8.62501 23.9564 8.71885 23.8704L16.3306 16.8908C16.4804 16.7534 16.5306 16.5382 16.4568 16.3488C16.3832 16.1594 16.2008 16.0346 15.9976 16.0346H14.356L15.336 14.6519H19.021C21.3694 14.6519 23.2799 12.7414 23.2799 10.3931C23.2799 8.04476 21.3693 6.13428 19.021 6.13428Z" fill="#AAAAAA"/>
<path d="M9.20715 14.0926C9.20715 13.8204 8.98649 13.5998 8.7143 13.5998H5.41859C3.37142 13.5998 1.70585 11.9343 1.70585 9.88702C1.70585 7.83979 3.37136 6.17429 5.41859 6.17429C6.15399 6.17429 6.86559 6.38976 7.47627 6.79745C7.6328 6.90193 7.83519 6.90817 7.9979 6.81348C8.16061 6.71879 8.2551 6.53965 8.2415 6.35198L8.239 6.31754C8.23052 6.20182 8.22257 6.09247 8.22257 5.98674C8.22251 3.22915 10.4659 0.985699 13.2235 0.985699C15.5121 0.985699 17.5049 2.53226 18.0697 4.74667C18.137 5.01051 18.4054 5.1696 18.6691 5.10244C18.9329 5.03521 19.0921 4.76684 19.0249 4.50307C18.3486 1.85173 15.9631 0 13.2235 0C10.0656 0 7.47101 2.45761 7.25179 5.56066C6.67542 5.31574 6.05404 5.18865 5.41859 5.18865C2.82791 5.18865 0.720154 7.29634 0.720154 9.88709C0.720154 12.4778 2.82784 14.5855 5.41859 14.5855H8.7143C8.98649 14.5855 9.20715 14.3648 9.20715 14.0926Z" fill="#AAAAAA"/>
</g>
<defs>
<clipPath id="clip0_52_180">
<rect width="24" height="24" fill="white"/>
</clipPath>
</defs>
</svg>
