<svg width="24" height="24" viewBox="0 0 24 24" fill="none" xmlns="http://www.w3.org/2000/svg">
<path d="M22.7953 15.0658C22.7258 14.8051 22.4578 14.6505 22.1975 14.7199L19.1046 15.5458L17.139 14.4086V9.55366L19.0841 8.41349L22.1818 9.22162C22.2231 9.23243 22.2645 9.23757 22.3054 9.23757C22.5223 9.23757 22.7203 9.09203 22.7776 8.87232C22.8457 8.61132 22.6894 8.34459 22.4284 8.27648L20.2759 7.71495L22.1782 6.59985C22.4109 6.46342 22.4889 6.16426 22.3526 5.93153C22.2161 5.69886 21.9168 5.62071 21.6842 5.7572L19.782 6.87224L20.3435 4.71979C20.4116 4.45879 20.2553 4.19206 19.9943 4.12394C19.7334 4.05583 19.4666 4.21218 19.3984 4.47324L18.5904 7.57084L16.6136 8.72958L12.4886 6.34797V4.07484L14.7522 1.81116C14.943 1.62043 14.943 1.31118 14.7522 1.12051C14.5614 0.929774 14.2523 0.929774 14.0615 1.12051L12.4886 2.69347V0.488395C12.4886 0.218671 12.27 0 12.0002 0C11.7304 0 11.5118 0.218671 11.5118 0.488395V2.6934L9.93895 1.12044C9.74821 0.929709 9.43903 0.929644 9.24823 1.12044C9.05749 1.31118 9.05749 1.62043 9.24823 1.8111L11.5119 4.07478V6.3479L7.29998 8.77965L5.3972 7.65498L4.55872 4.51577C4.48917 4.25516 4.22121 4.10044 3.96086 4.16985C3.70025 4.2394 3.5454 4.50711 3.61495 4.76771L4.1964 6.94537L2.28423 5.81509C2.05215 5.67789 1.7526 5.75479 1.61532 5.98701C1.47805 6.21922 1.55502 6.51871 1.78724 6.65598L3.67179 7.76991L1.55066 8.33632C1.29005 8.40587 1.1352 8.67357 1.20475 8.93418C1.26309 9.15259 1.46047 9.2967 1.67628 9.2967C1.71802 9.2967 1.76041 9.2913 1.80254 9.28003L4.84993 8.4663L6.86108 9.65505V14.4461L4.9159 15.5865L1.8183 14.7784C1.5573 14.7103 1.29051 14.8667 1.22246 15.1277C1.15434 15.3887 1.3107 15.6554 1.57169 15.7235L3.72415 16.2851L1.82195 17.4002C1.58928 17.5366 1.5112 17.8357 1.64756 18.0685C1.73847 18.2236 1.90172 18.3099 2.0694 18.3099C2.15328 18.3099 2.23839 18.2883 2.31594 18.2428L4.21821 17.1277L3.65669 19.2802C3.58857 19.5412 3.74492 19.8079 4.00592 19.8761C4.04727 19.8869 4.08869 19.892 4.12952 19.892C4.34643 19.892 4.54446 19.7465 4.60176 19.5268L5.40983 16.4291L7.38666 15.2703L11.5116 17.6518V19.9252L9.2479 22.1888C9.05717 22.3796 9.05717 22.6888 9.2479 22.8795C9.3433 22.9748 9.46833 23.0226 9.59329 23.0226C9.71826 23.0226 9.84329 22.9749 9.93869 22.8795L11.5116 21.3065V23.5115C11.5116 23.7813 11.7302 23.9999 12 23.9999C12.2698 23.9999 12.4884 23.7813 12.4884 23.5115V21.3065L12.9934 21.8116C13.1842 22.0023 13.4934 22.0024 13.6842 21.8116C13.8749 21.6209 13.8749 21.3117 13.6842 21.1209L12.4884 19.9251V12.8467L15.6698 14.6872L14.1623 15.5575C13.9287 15.6924 13.8487 15.9911 13.9836 16.2247C14.1184 16.4583 14.4173 16.5384 14.6507 16.4034L16.6456 15.2517L18.6155 16.3913L19.4413 19.4842C19.4996 19.7026 19.697 19.8468 19.9128 19.8468C19.9546 19.8468 19.997 19.8414 20.0391 19.8301C20.2997 19.7605 20.4546 19.4928 20.385 19.2322L19.8111 17.083L21.7198 18.1871C21.7968 18.2317 21.8809 18.2529 21.9639 18.2529C22.1325 18.2529 22.2965 18.1654 22.3871 18.009C22.5222 17.7755 22.4424 17.4767 22.2089 17.3416L20.3003 16.2374L22.4494 15.6636C22.7101 15.5941 22.8649 15.3264 22.7953 15.0658ZM7.83787 10.2324L8.39952 10.5644C8.47754 10.6105 8.56311 10.6324 8.64763 10.6324C8.8146 10.6324 8.97733 10.5467 9.0685 10.3924C9.20577 10.1602 9.1288 9.8607 8.89658 9.72343L8.26505 9.35016L11.5116 7.47577V11.1531L10.6499 10.6546C10.4163 10.5194 10.1176 10.5993 9.98251 10.8327C9.84745 11.0662 9.92723 11.365 10.1607 11.5001L11.0294 12.0027L7.83794 13.8736V10.2324H7.83787ZM8.35603 14.7021L11.5116 12.8522V16.5239L8.35603 14.7021ZM12.4884 7.47583L15.6441 9.29774L14.6522 9.87919C14.4195 10.0156 14.3415 10.3148 14.4778 10.5475C14.5687 10.7026 14.732 10.789 14.8997 10.789C14.9835 10.789 15.0687 10.7674 15.1462 10.7218L16.1623 10.1263V13.8435L12.4885 11.7182V7.47583H12.4884Z" fill="#AAAAAA"/>
</svg>
