<svg width="23" height="21" viewBox="0 0 23 21" fill="none" xmlns="http://www.w3.org/2000/svg">
<path d="M4.536 8.456C3.816 8.456 3.152 8.28 2.544 7.928C1.952 7.576 1.48 7.104 1.128 6.512C0.776 5.904 0.6 5.24 0.6 4.52C0.6 3.8 0.776 3.144 1.128 2.552C1.48 1.944 1.952 1.472 2.544 1.136C3.152 0.783999 3.816 0.607999 4.536 0.607999C5.272 0.607999 5.936 0.783999 6.528 1.136C7.136 1.472 7.616 1.944 7.968 2.552C8.32 3.144 8.496 3.8 8.496 4.52C8.496 5.24 8.32 5.904 7.968 6.512C7.616 7.104 7.136 7.576 6.528 7.928C5.936 8.28 5.272 8.456 4.536 8.456ZM4.536 6.896C5.208 6.896 5.776 6.672 6.24 6.224C6.704 5.76 6.936 5.192 6.936 4.52C6.936 3.848 6.704 3.28 6.24 2.816C5.776 2.352 5.208 2.12 4.536 2.12C3.88 2.12 3.32 2.352 2.856 2.816C2.392 3.28 2.16 3.848 2.16 4.52C2.16 5.192 2.392 5.76 2.856 6.224C3.32 6.672 3.88 6.896 4.536 6.896ZM16.4618 20.216C15.3098 20.216 14.2858 19.992 13.3898 19.544C12.5098 19.08 11.8218 18.432 11.3258 17.6C10.8458 16.752 10.6058 15.784 10.6058 14.696V8.48C10.6058 7.392 10.8458 6.44 11.3258 5.624C11.8218 4.792 12.5098 4.152 13.3898 3.704C14.2858 3.24 15.3098 3.008 16.4618 3.008C17.6138 3.008 18.6298 3.232 19.5098 3.68C20.3898 4.112 21.0698 4.728 21.5498 5.528C22.0458 6.328 22.2938 7.256 22.2938 8.312V8.336C22.2938 8.416 22.2698 8.48 22.2218 8.528C22.1738 8.576 22.1178 8.6 22.0538 8.6L20.2298 8.696C20.0698 8.696 19.9898 8.624 19.9898 8.48V8.408C19.9898 7.384 19.6698 6.56 19.0298 5.936C18.3898 5.312 17.5338 5 16.4618 5C15.3898 5 14.5258 5.312 13.8698 5.936C13.2298 6.56 12.9098 7.384 12.9098 8.408V14.792C12.9098 15.816 13.2298 16.64 13.8698 17.264C14.5258 17.888 15.3898 18.2 16.4618 18.2C17.5338 18.2 18.3898 17.888 19.0298 17.264C19.6698 16.64 19.9898 15.816 19.9898 14.792V14.744C19.9898 14.6 20.0698 14.528 20.2298 14.528L22.0538 14.624C22.2138 14.624 22.2938 14.704 22.2938 14.864C22.2938 15.92 22.0458 16.856 21.5498 17.672C21.0698 18.472 20.3898 19.096 19.5098 19.544C18.6298 19.992 17.6138 20.216 16.4618 20.216Z" fill="#666666"/>
</svg>
